<svg width="64" height="64" viewBox="0 0 64 64" fill="none" xmlns="http://www.w3.org/2000/svg">
<g clip-path="url(#clip0_78_33)">
<path d="M24.878 0C11.1416 0 0.00366211 11.1379 0.00366211 24.8744C0.00366211 38.611 11.1416 49.7489 24.8781 49.7489C30.1604 49.7489 35.0591 48.1013 39.0858 45.2949L39.0888 45.292L57.5368 63.7401C57.8791 64.0824 58.4235 64.0912 58.7747 63.7401L63.7467 58.7681C64.089 58.4257 64.0714 57.8581 63.7438 57.5303L45.2985 39.0851C48.1049 35.0554 49.7525 30.1566 49.7525 24.8744C49.7525 11.1379 38.6146 0 24.878 0ZM24.878 43.8961C14.3722 43.8961 5.85639 35.3803 5.85639 24.8744C5.85639 14.3686 14.3723 5.85283 24.878 5.85283C35.3837 5.85283 43.8996 14.3686 43.8996 24.8744C43.8996 35.3803 35.3838 43.8961 24.878 43.8961Z" fill="#2D5FA4"/>
</g>
<defs>
<clipPath id="clip0_78_33">
<rect width="64" height="64" fill="white"/>
</clipPath>
</defs>
</svg>
